<svg width="15" height="9" viewBox="0 0 15 9" fill="none" xmlns="http://www.w3.org/2000/svg">
<path fill-rule="evenodd" clip-rule="evenodd" d="M8.31037 8.6564C8.0991 8.87641 7.81259 9 7.51384 9C7.2151 9 6.92859 8.87641 6.71731 8.6564L0.343948 2.01766C0.236343 1.90941 0.150514 1.77991 0.0914678 1.63673C0.0324221 1.49356 0.00134247 1.33956 4.25376e-05 1.18374C-0.00125739 1.02792 0.0272487 0.873388 0.0838968 0.729164C0.140545 0.584939 0.224201 0.45391 0.329984 0.343723C0.435766 0.233536 0.561557 0.146396 0.700016 0.0873895C0.838475 0.0283827 0.98683 -0.00130975 1.13642 4.43096e-05C1.28602 0.00139836 1.43385 0.0337721 1.57131 0.0952764C1.70876 0.156781 1.83308 0.246183 1.93701 0.358269L7.51384 6.16732L13.0907 0.358269C13.3032 0.144498 13.5878 0.0262117 13.8832 0.0288856C14.1786 0.0315594 14.4611 0.15498 14.67 0.372564C14.8789 0.590149 14.9974 0.884489 15 1.19219C15.0025 1.49989 14.889 1.79633 14.6837 2.01766L8.31037 8.6564Z" fill="black"/>
</svg>
